<svg xmlns="http://www.w3.org/2000/svg" width="1910" height="1024" viewBox="0 0 1910 1024" font-family="Arial, sans-serif">

  <!-- Background -->
  <rect x="0" y="0" width="1910" height="1024" fill="#F5F5F5"/>

  <!-- ===================== DESKTOP FRAME ===================== -->
  <text x="0" y="-10" font-size="16" fill="#333333"></text>
  <g>
    <rect x="0" y="0" width="1440" height="1024" fill="#FFFFFF" stroke="#CCCCCC" stroke-width="1"/>

    <!-- Header -->
    <rect x="0" y="0" width="1440" height="80" fill="#163A5F"/>
    <text x="40" y="47" font-size="22" font-weight="bold" fill="#FFFFFF">RecoveryLab</text>
    <g font-size="14" fill="#FFFFFF">
      <text x="780" y="45">Homepage</text>
      <text x="880" y="45">Recovery Plan</text>
      <text x="1010" y="45">Injury Library</text>
      <text x="1150" y="45">Contact</text>
      <text x="1250" y="45">About</text>
    </g>
    <circle cx="1420" cy="15" r="14" fill="#2E8B57"/>
    <text x="1420" y="20" font-size="12" fill="#FFFFFF" text-anchor="middle">1.1</text>

    <!-- Hero -->
    <rect x="0" y="80" width="1440" height="400" fill="#F5F5F5"/>
    <text x="40" y="230" font-size="40" font-weight="bold" fill="#163A5F">Recover Stronger. Return Safer.</text>
    <text x="40" y="270" font-size="18" fill="#333333">Personalised recovery plans, expert guidance, and injury prevention built around you.</text>
    <rect x="40" y="310" width="230" height="52" rx="8" fill="#F97316"/>
    <text x="155" y="343" font-size="16" fill="#FFFFFF" text-anchor="middle">Start Your Assessment</text>
    <circle cx="1400" cy="120" r="14" fill="#2E8B57"/>
    <text x="1400" y="125" font-size="12" fill="#FFFFFF" text-anchor="middle">1.3</text>

    <!-- Feature cards -->
    <text x="40" y="520" font-size="22" font-weight="bold" fill="#163A5F">How RecoveryLab Helps</text>

    <g>
      <rect x="40" y="550" width="420" height="240" rx="12" fill="none" stroke="#333333" stroke-width="1"/>
      <rect x="72" y="582" width="48" height="48" rx="8" fill="#2E8B57"/>
      <text x="72" y="660" font-size="18" font-weight="bold" fill="#163A5F">Recovery Assessment</text>
      <text x="72" y="690" font-size="13" fill="#333333">Answer a short questionnaire and</text>
      <text x="72" y="710" font-size="13" fill="#333333">get a plan matched to your injury.</text>
    </g>

    <g>
      <rect x="510" y="550" width="420" height="240" rx="12" fill="none" stroke="#333333" stroke-width="1"/>
      <rect x="542" y="582" width="48" height="48" rx="8" fill="#2E8B57"/>
      <text x="542" y="660" font-size="18" font-weight="bold" fill="#163A5F">Injury Library</text>
      <text x="542" y="690" font-size="13" fill="#333333">Understand common injuries before</text>
      <text x="542" y="710" font-size="13" fill="#333333">your first consultation.</text>
    </g>

    <g>
      <rect x="980" y="550" width="420" height="240" rx="12" fill="none" stroke="#333333" stroke-width="1"/>
      <rect x="1012" y="582" width="48" height="48" rx="8" fill="#2E8B57"/>
      <text x="1012" y="660" font-size="18" font-weight="bold" fill="#163A5F">Exercise Library</text>
      <text x="1012" y="690" font-size="13" fill="#333333">Guided mobility and strength moves</text>
      <text x="1012" y="710" font-size="13" fill="#333333">for every stage of recovery.</text>
    </g>

    <circle cx="1400" cy="560" r="14" fill="#2E8B57"/>
    <text x="1400" y="565" font-size="12" fill="#FFFFFF" text-anchor="middle">1.5</text>

    <!-- Testimonial -->
    <rect x="0" y="820" width="1440" height="120" fill="#2E8B57"/>
    <text x="40" y="870" font-size="16" fill="#FFFFFF" font-style="italic">"RecoveryLab helped me get back to football safely after my ACL injury."</text>
    <text x="40" y="900" font-size="14" fill="#FFFFFF">— Sample Testimonial, Footballer</text>

    <!-- Footer -->
    <rect x="0" y="940" width="1440" height="84" fill="#163A5F"/>
    <text x="40" y="975" font-size="13" fill="#FFFFFF">Contact: hello@recoverylab.com</text>
    <text x="40" y="998" font-size="13" fill="#FFFFFF">Homepage · Recovery Plan · Injury Library · Contact · About</text>
  </g>

  <!-- ===================== MOBILE FRAME ===================== -->
  <g transform="translate(1520,0)">
    <rect x="0" y="0" width="390" height="844" fill="#FFFFFF" stroke="#CCCCCC" stroke-width="1" rx="24"/>

    <!-- Header -->
    <rect x="0" y="0" width="390" height="64" fill="#163A5F"/>
    <text x="20" y="38" font-size="16" font-weight="bold" fill="#FFFFFF">RecoveryLab</text>
    <g fill="#FFFFFF">
      <rect x="345" y="26" width="20" height="2.5"/>
      <rect x="345" y="32" width="20" height="2.5"/>
      <rect x="345" y="38" width="20" height="2.5"/>
    </g>

    <!-- Hero -->
    <rect x="0" y="64" width="390" height="220" fill="#F5F5F5"/>
    <text x="20" y="120" font-size="22" font-weight="bold" fill="#163A5F">Recover Stronger.</text>
    <text x="20" y="146" font-size="22" font-weight="bold" fill="#163A5F">Return Safer.</text>
    <text x="20" y="176" font-size="12" fill="#333333">Personalised recovery plans built</text>
    <text x="20" y="192" font-size="12" fill="#333333">around your injury and goals.</text>
    <rect x="20" y="214" width="190" height="44" rx="8" fill="#F97316"/>
    <text x="115" y="241" font-size="13" fill="#FFFFFF" text-anchor="middle">Start Your Assessment</text>

    <!-- Feature cards (stacked) -->
    <text x="20" y="310" font-size="16" font-weight="bold" fill="#163A5F">How RecoveryLab Helps</text>

    <g>
      <rect x="20" y="330" width="350" height="120" rx="12" fill="none" stroke="#333333" stroke-width="1"/>
      <rect x="40" y="350" width="36" height="36" rx="6" fill="#2E8B57"/>
      <text x="40" y="408" font-size="14" font-weight="bold" fill="#163A5F">Recovery Assessment</text>
      <text x="40" y="428" font-size="11" fill="#333333">A short questionnaire matched to you.</text>
    </g>

    <g>
      <rect x="20" y="464" width="350" height="120" rx="12" fill="none" stroke="#333333" stroke-width="1"/>
      <rect x="40" y="484" width="36" height="36" rx="6" fill="#2E8B57"/>
      <text x="40" y="542" font-size="14" font-weight="bold" fill="#163A5F">Injury Library</text>
      <text x="40" y="562" font-size="11" fill="#333333">Understand your injury at a glance.</text>
    </g>

    <g>
      <rect x="20" y="598" width="350" height="120" rx="12" fill="none" stroke="#333333" stroke-width="1"/>
      <rect x="40" y="618" width="36" height="36" rx="6" fill="#2E8B57"/>
      <text x="40" y="676" font-size="14" font-weight="bold" fill="#163A5F">Exercise Library</text>
      <text x="40" y="696" font-size="11" fill="#333333">Guided moves for every recovery stage.</text>
    </g>

    <!-- Testimonial -->
    <rect x="0" y="734" width="390" height="60" fill="#2E8B57"/>
    <text x="20" y="758" font-size="11" fill="#FFFFFF" font-style="italic">"Helped me return to football safely."</text>
    <text x="20" y="776" font-size="10" fill="#FFFFFF">— Sample Testimonial</text>

    <!-- Footer -->
    <rect x="0" y="794" width="390" height="50" fill="#163A5F" rx="0"/>
    <text x="20" y="815" font-size="10" fill="#FFFFFF">hello@recoverylab.com</text>
    <text x="20" y="830" font-size="10" fill="#FFFFFF">Homepage · Recovery Plan · Injury Library</text>
  </g>

  <!-- Labels -->
  <text x="620" y="1010" font-size="14" fill="#333333" text-anchor="middle" transform="translate(0,0)"></text>
</svg>
